<svg width="956" height="539" viewBox="0 0 956 539" fill="none" xmlns="http://www.w3.org/2000/svg">
  <rect width="956" height="539" fill="#E5E5E5" />
  <g id="aboutImgBg">
    <rect width="956" height="539" fill="white" />
    <g id="undraw_profile_re_4a55 1" clip-path="url(#clip0_0_1)">
      <path id="Vector"
        d="M93.9992 523.891L93.048 522.132C105.801 515.234 121.674 506.651 129.964 492.564C138.136 478.678 138.32 459.822 130.443 443.353C123.739 429.338 111.425 416.781 94.8315 407.04C91.5585 405.119 88.1227 403.298 84.8 401.537C76.7685 397.281 68.4635 392.879 61.6156 386.634C52.184 378.033 45.0478 363.6 50.3666 350.743C52.1159 346.64 54.9807 343.109 58.6357 340.551C62.2908 337.994 66.5896 336.513 71.0441 336.276L71.1569 338.273C67.0761 338.489 63.1375 339.845 59.7884 342.187C56.4392 344.529 53.8135 347.762 52.2092 351.521C47.2665 363.468 54.0478 377.026 62.9633 385.157C69.624 391.23 77.8151 395.572 85.7365 399.77C89.0781 401.541 92.5336 403.372 95.8442 405.316C112.783 415.259 125.371 428.114 132.247 442.49C140.407 459.551 140.193 479.127 131.688 493.579C123.115 508.145 106.971 516.876 93.9992 523.891Z"
        fill="#F1F1F1" />
      <path id="Vector_2"
        d="M83.7199 346.817C93.3849 346.817 101.22 343.011 101.22 338.317C101.22 333.623 93.3849 329.817 83.7199 329.817C74.0549 329.817 66.2199 333.623 66.2199 338.317C66.2199 343.011 74.0549 346.817 83.7199 346.817Z"
        fill="#F1F1F1" />
      <path id="Vector_3"
        d="M97.7199 402.817C107.385 402.817 115.22 399.011 115.22 394.317C115.22 389.623 107.385 385.817 97.7199 385.817C88.0549 385.817 80.2199 389.623 80.2199 394.317C80.2199 399.011 88.0549 402.817 97.7199 402.817Z"
        fill="#F1F1F1" />
      <path id="Vector_4"
        d="M65.7199 411.817C75.3849 411.817 83.2199 408.011 83.2199 403.317C83.2199 398.623 75.3849 394.817 65.7199 394.817C56.0549 394.817 48.2199 398.623 48.2199 403.317C48.2199 408.011 56.0549 411.817 65.7199 411.817Z"
        fill="#F1F1F1" />
      <path id="Vector_5"
        d="M115.72 458.817C125.385 458.817 133.22 455.011 133.22 450.317C133.22 445.623 125.385 441.817 115.72 441.817C106.055 441.817 98.2199 445.623 98.2199 450.317C98.2199 455.011 106.055 458.817 115.72 458.817Z"
        fill="#F1F1F1" />
      <path id="Vector_6"
        d="M150.72 458.817C160.385 458.817 168.22 455.011 168.22 450.317C168.22 445.623 160.385 441.817 150.72 441.817C141.055 441.817 133.22 445.623 133.22 450.317C133.22 455.011 141.055 458.817 150.72 458.817Z"
        fill="#F1F1F1" />
      <path id="Rectangle 62" d="M930 39H367V297H930V39Z" fill="#E6E6E6" />
      <path id="aboutImgDark" d="M914 61H383V277H914V61Z" fill="#112233" />
      <path id="Rectangle 80" d="M929.567 15H366.771V38.9092H929.567V15Z" fill="#0075FF" />
      <path id="Ellipse 90"
        d="M384.539 30.4906C386.986 30.4906 388.97 28.5066 388.97 26.0591C388.97 23.6117 386.986 21.6276 384.539 21.6276C382.091 21.6276 380.107 23.6117 380.107 26.0591C380.107 28.5066 382.091 30.4906 384.539 30.4906Z"
        fill="white" />
      <path id="Ellipse 91"
        d="M401.359 30.4906C403.807 30.4906 405.791 28.5066 405.791 26.0591C405.791 23.6117 403.807 21.6276 401.359 21.6276C398.912 21.6276 396.928 23.6117 396.928 26.0591C396.928 28.5066 398.912 30.4906 401.359 30.4906Z"
        fill="white" />
      <path id="Ellipse 92"
        d="M418.18 30.4906C420.628 30.4906 422.612 28.5066 422.612 26.0591C422.612 23.6117 420.628 21.6276 418.18 21.6276C415.733 21.6276 413.749 23.6117 413.749 26.0591C413.749 28.5066 415.733 30.4906 418.18 30.4906Z"
        fill="white" />
      <path id="Path 142"
        d="M620.432 106.208C619.863 106.208 619.317 106.434 618.914 106.837C618.512 107.239 618.286 107.785 618.286 108.355C618.286 108.924 618.512 109.47 618.914 109.873C619.317 110.275 619.863 110.502 620.432 110.502H738.236C738.806 110.502 739.352 110.275 739.754 109.873C740.157 109.47 740.383 108.924 740.383 108.355C740.383 107.785 740.157 107.239 739.754 106.837C739.352 106.434 738.806 106.208 738.236 106.208H620.432Z"
        fill="#E6E6E6" />
      <path id="Path 143"
        d="M620.432 119.09C619.864 119.092 619.319 119.318 618.917 119.721C618.516 120.123 618.29 120.669 618.29 121.237C618.29 121.806 618.516 122.351 618.917 122.754C619.319 123.156 619.864 123.383 620.432 123.384H680.574C681.142 123.383 681.687 123.156 682.089 122.754C682.49 122.351 682.716 121.806 682.716 121.237C682.716 120.669 682.49 120.123 682.089 119.721C681.687 119.318 681.142 119.092 680.574 119.09H620.432Z"
        fill="#E6E6E6" />
      <path id="Path 142_2"
        d="M617.468 181.444C616.899 181.444 616.353 181.67 615.95 182.073C615.547 182.475 615.321 183.021 615.321 183.591C615.321 184.16 615.547 184.706 615.95 185.109C616.353 185.511 616.899 185.737 617.468 185.737H838.351C838.92 185.737 839.466 185.511 839.869 185.109C840.272 184.706 840.498 184.16 840.498 183.591C840.498 183.021 840.272 182.475 839.869 182.073C839.466 181.67 838.92 181.444 838.351 181.444H617.468Z"
        fill="#E6E6E6" />
      <path id="Path 143_2"
        d="M617.468 194.326C616.899 194.327 616.355 194.554 615.953 194.957C615.551 195.359 615.326 195.905 615.326 196.473C615.326 197.042 615.551 197.587 615.953 197.99C616.355 198.392 616.899 198.619 617.468 198.62H780.688C781.257 198.619 781.802 198.392 782.203 197.99C782.605 197.587 782.831 197.042 782.831 196.473C782.831 195.905 782.605 195.359 782.203 194.957C781.802 194.554 781.257 194.327 780.688 194.326H617.468Z"
        fill="#E6E6E6" />
      <path id="Path 142_3"
        d="M617.468 206.917C616.899 206.918 616.355 207.145 615.953 207.548C615.551 207.95 615.326 208.496 615.326 209.064C615.326 209.633 615.551 210.178 615.953 210.581C616.355 210.983 616.899 211.21 617.468 211.211H838.351C838.92 211.21 839.464 210.983 839.866 210.581C840.268 210.178 840.493 209.633 840.493 209.064C840.493 208.496 840.268 207.95 839.866 207.548C839.464 207.145 838.92 206.918 838.351 206.917H617.468Z"
        fill="#E6E6E6" />
      <path id="Path 143_3"
        d="M617.468 219.8C616.899 219.801 616.355 220.028 615.953 220.43C615.551 220.833 615.326 221.378 615.326 221.947C615.326 222.515 615.551 223.061 615.953 223.463C616.355 223.866 616.899 224.092 617.468 224.094H780.688C781.257 224.092 781.802 223.866 782.203 223.463C782.605 223.061 782.831 222.515 782.831 221.947C782.831 221.378 782.605 220.833 782.203 220.43C781.802 220.028 781.257 219.801 780.688 219.8H617.468Z"
        fill="#E6E6E6" />
      <path id="Vector_7"
        d="M501.989 190.157C512.313 190.157 520.683 181.787 520.683 171.462C520.683 161.138 512.313 152.768 501.989 152.768C491.664 152.768 483.295 161.138 483.295 171.462C483.295 181.787 491.664 190.157 501.989 190.157Z"
        fill="#FFB8B8" />
      <path id="Vector_8"
        d="M496.069 156.507C496.069 156.507 504.793 158.844 509.311 159.778C513.829 160.713 513.361 158.065 513.361 158.065C513.361 158.065 519.281 158.844 518.97 158.22C518.658 157.597 521.462 154.326 518.191 150.587C514.919 146.848 515.854 144.044 515.854 144.044H513.05L512.271 142.953H507.909C507.909 142.953 503.086 138.725 494.518 139.971C485.95 141.217 475.817 144.511 474.882 149.652C474.755 150.35 474.588 151.124 474.395 151.943C472.052 161.834 477.03 171.089 482.193 179.845C483.462 181.997 489.6 186.689 489.443 183.47C489.286 180.251 483.918 173.02 487.657 172.553C491.395 172.085 497.783 162.582 496.069 156.507Z"
        fill="#2F2E41" />
      <path id="Vector_9"
        d="M491.384 231.898C487.775 231.609 484.196 231.021 480.685 230.14L480.882 226.412L482.519 196.77L482.533 196.542H515.464L520.632 223.835L521.329 227.518C519.965 228.048 518.586 228.548 517.177 228.988C517.161 228.988 517.161 229.003 517.147 229.003C515.192 229.609 513.206 230.14 511.205 230.579C508.545 231.153 505.853 231.568 503.143 231.822C501.049 232.03 498.945 232.131 496.84 232.125C495.021 232.125 493.187 232.049 491.384 231.898Z"
        fill="#0075FF" />
      <path id="Vector_10"
        d="M470.213 226.624C468.849 226.033 467.531 225.396 466.227 224.73L465.667 224.442C465.288 224.245 464.894 224.032 464.515 223.82C463.999 223.532 463.499 223.244 463.015 222.957C462.545 222.684 462.06 222.396 461.59 222.108C461.56 222.093 461.545 222.078 461.515 222.078C459.878 221.032 458.271 219.956 456.726 218.789C456.468 218.592 456.21 218.395 455.952 218.198L455.68 213.834L456.074 213.591L482.519 196.77L482.882 196.542L482.912 196.527L486.64 196.542V210.424C488.747 213.47 490.171 219.85 491.05 228.2C491.172 229.397 491.278 230.625 491.384 231.898C487.775 231.609 484.196 231.021 480.685 230.14C480.306 230.064 479.942 229.973 479.563 229.867C477.355 229.289 475.179 228.591 473.047 227.776C472.395 227.533 471.759 227.275 471.122 227.018L471.062 226.988C470.789 226.866 470.486 226.745 470.213 226.624Z"
        fill="#2F2E41" />
      <path id="Vector_11"
        d="M464.515 223.82C463.999 223.532 463.499 223.244 463.015 222.957C462.545 222.684 462.06 222.396 461.59 222.108C461.56 222.093 461.545 222.078 461.515 222.078C459.878 221.032 458.271 219.956 456.726 218.789C456.468 218.592 456.21 218.395 455.952 218.198C455.832 218.092 455.71 218.001 455.574 217.895C454.604 217.152 453.664 216.38 452.755 215.561C452.71 215.531 452.68 215.485 452.634 215.455C453.552 214.749 454.582 214.201 455.68 213.834L456.756 214.152L464.424 216.455L464.469 219.562L464.515 223.82Z"
        fill="#2F2E41" />
      <path id="Vector_12"
        d="M529.088 223.866C528.633 224.108 528.179 224.351 527.724 224.578C527.618 224.639 527.527 224.684 527.436 224.73C526.83 225.033 526.239 225.336 525.633 225.624C525.618 225.639 525.587 225.639 525.587 225.654C525.557 225.669 525.512 225.684 525.481 225.699C524.118 226.351 522.738 226.957 521.329 227.518C519.965 228.048 518.586 228.549 517.177 228.988C517.161 228.988 517.161 229.003 517.147 229.003C515.192 229.609 513.206 230.14 511.205 230.579C511.183 229.334 511.347 228.093 511.691 226.897L511.706 226.684L513.009 205.589L511.266 196.542L516.267 195.8L543.773 210.606C543.773 210.606 540.742 213.636 528.3 220.092C527.2 220.663 528.815 222.562 529.088 223.866Z"
        fill="#2F2E41" />
      <path id="Vector_13"
        d="M502.81 228.185C500.84 228.367 498.84 228.458 496.84 228.458C494.9 228.458 492.975 228.382 491.05 228.2C491.172 229.397 491.277 230.625 491.384 231.898C493.187 232.049 495.021 232.125 496.84 232.125C498.945 232.131 501.049 232.03 503.144 231.822C505.853 231.568 508.545 231.153 511.205 230.579C511.183 229.334 511.347 228.093 511.691 226.897L511.706 226.684C508.78 227.396 505.808 227.898 502.81 228.185ZM560.078 143.138C556.876 133.939 551.706 125.549 544.928 118.554C538.15 111.559 529.928 106.126 520.835 102.635C511.742 99.1433 501.996 97.6775 492.278 98.3394C482.561 99.0013 473.104 101.775 464.568 106.467C456.032 111.159 448.623 117.657 442.856 125.507C437.09 133.356 433.105 142.37 431.179 151.918C429.254 161.466 429.434 171.319 431.708 180.79C433.982 190.262 438.294 199.123 444.344 206.756C444.95 207.514 445.572 208.272 446.209 208.999C446.269 209.06 446.3 209.105 446.345 209.151C447.909 210.955 449.574 212.67 451.331 214.288C451.755 214.682 452.194 215.076 452.634 215.455C452.679 215.485 452.71 215.531 452.755 215.561C453.664 216.379 454.604 217.152 455.573 217.895C455.71 218.001 455.832 218.092 455.952 218.198C456.211 218.395 456.468 218.592 456.726 218.789C458.271 219.956 459.878 221.032 461.515 222.077C461.545 222.077 461.56 222.093 461.59 222.108C462.06 222.396 462.545 222.684 463.014 222.956C463.5 223.244 464 223.532 464.515 223.82C464.894 224.032 465.288 224.245 465.667 224.442L466.227 224.73C467.53 225.396 468.849 226.033 470.213 226.624C470.486 226.745 470.789 226.866 471.062 226.988L471.122 227.018C471.759 227.275 472.395 227.533 473.047 227.776C475.179 228.591 477.355 229.289 479.563 229.867C479.942 229.973 480.306 230.064 480.685 230.14C484.196 231.021 487.775 231.609 491.384 231.898C493.187 232.049 495.021 232.125 496.84 232.125C498.945 232.131 501.049 232.03 503.143 231.822C505.853 231.568 508.545 231.153 511.205 230.579C513.206 230.14 515.191 229.609 517.146 229.003C517.161 229.003 517.161 228.988 517.177 228.988C518.586 228.548 519.965 228.048 521.329 227.518C522.738 226.957 524.118 226.351 525.481 225.699C525.512 225.684 525.557 225.669 525.587 225.654C525.587 225.639 525.618 225.639 525.633 225.624C526.239 225.336 526.83 225.033 527.436 224.73C527.527 224.684 527.618 224.639 527.724 224.578C528.179 224.351 528.633 224.108 529.088 223.866C529.118 223.851 529.133 223.835 529.163 223.82C530.361 223.154 531.543 222.456 532.71 221.714C533.028 221.517 533.346 221.32 533.665 221.092C534.135 220.805 534.589 220.486 535.028 220.168C535.62 219.759 536.21 219.335 536.787 218.895C536.978 218.772 537.16 218.635 537.332 218.486C538.742 217.425 540.105 216.304 541.408 215.122C551.291 206.315 558.341 194.776 561.664 181.962C564.987 169.149 564.435 155.638 560.078 143.138L560.078 143.138ZM540.272 211.212C538.631 212.755 536.912 214.212 535.12 215.576C534.726 215.879 534.316 216.182 533.907 216.455C533.513 216.758 533.119 217.046 532.71 217.319C532.362 217.562 532.013 217.804 531.649 218.031C531.619 218.062 531.574 218.077 531.543 218.107C531.285 218.289 531.013 218.456 530.755 218.622C529.952 219.122 529.118 219.623 528.3 220.092C528.103 220.198 527.921 220.32 527.724 220.426C527.618 220.486 527.512 220.547 527.391 220.607C526.936 220.865 526.481 221.092 526.027 221.335C525.966 221.38 525.891 221.396 525.83 221.441C525.807 221.445 525.786 221.455 525.769 221.471C525.451 221.638 525.133 221.79 524.815 221.941C524.542 222.078 524.284 222.214 524.011 222.335C522.905 222.866 521.768 223.366 520.632 223.835C519.435 224.32 518.222 224.76 516.995 225.169C516.692 225.275 516.373 225.396 516.055 225.487C514.615 225.942 513.176 226.351 511.706 226.684C508.78 227.396 505.808 227.898 502.811 228.185C500.84 228.367 498.84 228.458 496.84 228.458C494.9 228.458 492.975 228.382 491.05 228.2C487.617 227.886 484.216 227.288 480.882 226.412C480.76 226.381 480.624 226.351 480.503 226.321C477.768 225.608 475.089 224.696 472.486 223.593C472.35 223.532 472.198 223.487 472.077 223.426C471.925 223.366 471.789 223.32 471.668 223.259C471.516 223.199 471.38 223.138 471.244 223.078C470.107 222.578 469.001 222.032 467.895 221.471L467.379 221.199C466.394 220.683 465.424 220.153 464.469 219.562C464.136 219.38 463.788 219.168 463.454 218.956C463.075 218.728 462.696 218.486 462.332 218.243C462.242 218.183 462.151 218.122 462.06 218.062C461.211 217.486 460.348 216.91 459.529 216.289C458.954 215.864 458.393 215.455 457.832 215.016C457.468 214.743 457.105 214.455 456.756 214.152C456.529 213.985 456.302 213.788 456.074 213.591C455.771 213.333 455.468 213.076 455.165 212.803C454.695 212.424 454.256 212 453.831 211.606C452.125 210.033 450.51 208.363 448.997 206.605C448.482 206.029 447.996 205.453 447.527 204.847C447.418 204.728 447.316 204.601 447.224 204.468C439.594 194.837 434.933 183.193 433.808 170.958C432.684 158.723 435.144 146.425 440.89 135.564C446.636 124.703 455.418 115.749 466.166 109.795C476.913 103.841 489.162 101.143 501.416 102.031C513.671 102.919 525.403 107.355 535.179 114.797C544.956 122.239 552.356 132.365 556.475 143.941C560.595 155.517 561.256 168.041 558.379 179.986C555.502 191.932 549.21 202.781 540.272 211.212L540.272 211.212Z"
        fill="#3F3D56" />
      <path id="Vector_14" d="M189.436 511.698L201.696 511.697L207.528 464.409L189.434 464.41L189.436 511.698Z"
        fill="#A0616A" />
      <path id="Vector_15"
        d="M186.309 507.695L210.453 507.694H210.454C214.535 507.694 218.448 509.315 221.334 512.201C224.219 515.086 225.84 519 225.841 523.08V523.58L186.31 523.582L186.309 507.695Z"
        fill="#2F2E41" />
      <path id="Vector_16" d="M235.436 511.698L247.696 511.697L253.528 464.409L235.434 464.41L235.436 511.698Z"
        fill="#A0616A" />
      <path id="Vector_17"
        d="M232.309 507.695L256.453 507.694H256.454C260.535 507.694 264.448 509.315 267.334 512.201C270.219 515.086 271.84 519 271.841 523.08V523.58L232.31 523.582L232.309 507.695Z"
        fill="#2F2E41" />
      <path id="Vector_18"
        d="M152.237 324.84C153.24 323.766 153.996 322.484 154.45 321.086C154.905 319.688 155.047 318.207 154.868 316.748C154.688 315.289 154.191 313.887 153.411 312.641C152.631 311.395 151.587 310.335 150.353 309.536L158.871 274.831L141.379 281.064L135.972 313.065C134.767 315.227 134.397 317.756 134.932 320.172C135.466 322.589 136.869 324.725 138.874 326.177C140.879 327.628 143.347 328.294 145.809 328.047C148.272 327.801 150.559 326.66 152.237 324.84V324.84Z"
        fill="#9E616A" />
      <path id="Vector_19"
        d="M282.378 321.84C281.374 320.766 280.619 319.484 280.164 318.086C279.709 316.688 279.567 315.207 279.746 313.748C279.926 312.289 280.423 310.887 281.203 309.641C281.983 308.395 283.027 307.335 284.261 306.536L275.743 271.831L293.235 278.064L298.642 310.065C299.847 312.227 300.218 314.756 299.683 317.172C299.148 319.589 297.745 321.725 295.74 323.177C293.735 324.628 291.268 325.294 288.805 325.047C286.342 324.801 284.055 323.66 282.378 321.84V321.84Z"
        fill="#9E616A" />
      <path id="Vector_20"
        d="M168.367 300.513L185.36 499.578L210.224 497.311L220.175 343.461L229.033 404.379L230.807 501.145L253.307 499.645L265.801 395.545L262.736 294.728L177.319 286.078L168.367 300.513Z"
        fill="#2F2E41" />
      <path id="Vector_21"
        d="M215.112 119.368C229.353 119.368 240.898 107.824 240.898 93.5824C240.898 79.3414 229.353 67.7967 215.112 67.7967C200.871 67.7967 189.326 79.3414 189.326 93.5824C189.326 107.824 200.871 119.368 215.112 119.368Z"
        fill="#FFB8B8" />
      <path id="Vector_22"
        d="M206.947 72.9538C206.947 72.9538 218.98 76.177 225.212 77.4664C231.443 78.7557 230.798 75.1026 230.798 75.1026C230.798 75.1026 238.964 76.177 238.534 75.3175C238.104 74.458 241.972 69.9455 237.46 64.7883C232.947 59.6312 234.237 55.7633 234.237 55.7633H230.369L229.294 54.2592H223.278C223.278 54.2592 216.626 48.4262 204.807 50.1452C192.989 51.8642 179.012 56.408 177.723 63.4991C177.548 64.4609 177.318 65.5294 177.05 66.6581C173.819 80.3017 180.685 93.0674 187.807 105.145C189.557 108.113 198.024 114.586 197.807 110.145C197.59 105.704 190.186 95.7312 195.343 95.0866C200.5 94.4419 209.31 81.3342 206.947 72.9538Z"
        fill="#2F2E41" />
      <path id="Vector_23"
        d="M188.28 128.176H233.691L265.801 297.752C265.801 297.752 237.807 300.145 221.807 306.145C205.807 312.145 179.209 292.439 179.209 292.439L188.28 128.176Z"
        fill="#0075FF" />
      <path id="Vector_24"
        d="M193.949 147.326V128.176L188.807 128.145L151.24 152.03L159.392 282.893C159.392 282.893 169.04 326.551 183.673 326.098C198.307 325.645 209.591 170.007 193.949 147.326Z"
        fill="#2F2E41" />
      <path id="Vector_25"
        d="M163.307 155.645L151.24 152.03C151.24 152.03 142.307 154.645 142.307 163.645C142.307 172.645 134.61 300.513 134.61 300.513L159.061 302.674L164.307 237.645L163.307 155.645Z"
        fill="#2F2E41" />
      <path id="Vector_26"
        d="M230.307 140.645L227.902 128.176L234.807 127.145L259.807 137.145C259.807 137.145 282.307 301.645 272.307 306.645C262.307 311.645 255.555 307.771 255.555 307.771C255.555 307.771 222.664 186.445 228.485 170.045L230.307 140.645Z"
        fill="#2F2E41" />
      <path id="Vector_27"
        d="M242.307 139.645L246.574 137.788C246.574 137.788 259.097 131.582 266.202 144.114C273.307 156.645 298.307 296.645 298.307 296.645L277.737 300.513L262.358 250.129L242.307 139.645Z"
        fill="#2F2E41" />
      <path id="Vector_28"
        d="M408 524.145H27C26.7348 524.145 26.4804 524.04 26.2929 523.852C26.1054 523.665 26 523.41 26 523.145C26 522.88 26.1054 522.626 26.2929 522.438C26.4804 522.251 26.7348 522.145 27 522.145H408C408.265 522.145 408.52 522.251 408.707 522.438C408.895 522.626 409 522.88 409 523.145C409 523.41 408.895 523.665 408.707 523.852C408.52 524.04 408.265 524.145 408 524.145Z"
        fill="#CACACA" />
    </g>
  </g>
  <defs>
    <clipPath id="clip0_0_1">
      <rect width="903.807" height="509.145" fill="white" transform="translate(26 15)" />
    </clipPath>
  </defs>
</svg>